# xmcd CD database file
#
# Track frame offsets:
#	150
#	17828
#	39295
#
# Disc length: 757 seconds
#
# Revision: 0
# Processed by: cddbd v1.5.1PL0 Copyright (c) Steve Scherf et al.
# Submitted via: CDex 1.51
#
DISCID=1802f303
DTITLE=横山輝一 - I'm Missin' You
DYEAR=1993
DGENRE=Japanese Pop
TTITLE0=I'm Missin' You
TTITLE1=My Destiny
TTITLE2=I'm Missin' You (Instrumental)
EXTD=YEAR: 19931025
EXTT0=
EXTT1=
EXTT2=
PLAYORDER=
